HIERARCHY
ROOT COM
{
	OFFSET 0.000000 0.000000 0.000000 
	CHANNELS 6 Xposition Yposition Zposition Zrotation Xrotation Yrotation
	JOINT Spine
	{
		OFFSET 0.000000 0.078370 -0.028498 
		CHANNELS 3 Zrotation Xrotation Yrotation
		JOINT Spine1
		{
			OFFSET 0.000000 0.111469 -0.000097 
			CHANNELS 3 Zrotation Xrotation Yrotation
			JOINT Spine2
			{
				OFFSET 0.000000 0.121511 -0.000092 
				CHANNELS 3 Zrotation Xrotation Yrotation
				JOINT Neck
				{
					OFFSET 0.000000 0.119873 -0.000040 
					CHANNELS 3 Zrotation Xrotation Yrotation
					JOINT Head
					{
						OFFSET 0.000000 0.051518 0.000000 
						CHANNELS 3 Zrotation Xrotation Yrotation
						End Site
						{
							OFFSET 0.000000 0.000000 0.000000 
						}
					}
					JOINT Leftcollar
					{
						OFFSET 0.033237 -0.012095 0.015552 
						CHANNELS 3 Zrotation Xrotation Yrotation
						JOINT LeftArm
						{
							OFFSET 0.131452 0.000000 0.000000 
							CHANNELS 3 Zrotation Xrotation Yrotation
							JOINT LeftForeArm
							{
								OFFSET 0.000000 -0.219203 0.000000 
								CHANNELS 3 Zrotation Xrotation Yrotation
								JOINT LeftHand
								{
									OFFSET 0.000000 -0.193166 0.000000 
									CHANNELS 3 Zrotation Xrotation Yrotation
									End Site
									{
										OFFSET -0.023329 -0.077705 -0.004495 
									}
								}
							}
						}
					}
					JOINT RightCollar
					{
						OFFSET -0.033237 -0.012094 0.015552 
						CHANNELS 3 Zrotation Xrotation Yrotation
						JOINT RightArm
						{
							OFFSET -0.131452 0.000000 0.000000 
							CHANNELS 3 Zrotation Xrotation Yrotation
							JOINT RightForeArm
							{
								OFFSET 0.000000 -0.219203 0.000000 
								CHANNELS 3 Zrotation Xrotation Yrotation
								JOINT RightHand
								{
									OFFSET 0.000000 -0.193166 0.000000 
									CHANNELS 3 Zrotation Xrotation Yrotation
									End Site
									{
										OFFSET 0.023329 -0.077705 -0.004495 
									}
								}
							}
						}
					}
				}
			}
		}
	}
	JOINT LeftUpLeg
	{
		OFFSET 0.077678 0.000000 0.000000 
		CHANNELS 3 Zrotation Xrotation Yrotation
		JOINT LeftLeg
		{
			OFFSET 0.000000 -0.359164 0.000000 
			CHANNELS 3 Zrotation Xrotation Yrotation
			JOINT LeftFoot
			{
				OFFSET 0.000000 -0.337214 0.000000 
				CHANNELS 3 Zrotation Xrotation Yrotation
				JOINT LeftToe
				{
					OFFSET 0.000000 0.000000 0.122098 
					CHANNELS 3 Zrotation Xrotation Yrotation
					End Site
					{
						OFFSET 0.000000 0.000000 0.000000 
					}
				}
			}
		}
	}
	JOINT RightUpLeg
	{
		OFFSET -0.077678 0.000000 0.000000 
		CHANNELS 3 Zrotation Xrotation Yrotation
		JOINT RightLeg
		{
			OFFSET 0.000000 -0.359164 0.000000 
			CHANNELS 3 Zrotation Xrotation Yrotation
			JOINT RightFoot
			{
				OFFSET 0.000000 -0.337214 0.000000 
				CHANNELS 3 Zrotation Xrotation Yrotation
				JOINT RightToe
				{
					OFFSET 0.000000 0.000000 0.122098 
					CHANNELS 3 Zrotation Xrotation Yrotation
					End Site
					{
						OFFSET 0.000000 0.000000 0.000000 
					}
				}
			}
		}
	}
}
MOTION
Frames: 14
Frame Time: 0.033333
0.423316 0.686845 0.707646 8.864850 343.571686 208.479004 358.382477 342.535492 360.000000 0.000000 0.000000 5.568680 0.000000 360.000000 360.000000 0.000000 360.000000 0.000000 0.000000 360.000000 0.000000 0.000000 360.000000 0.000000 18.563000 13.910500 353.243286 360.000000 347.734314 360.000000 360.000000 0.000000 90.000000 0.000000 360.000000 0.000000 333.812592 339.755798 19.059401 0.000000 321.026886 0.000000 0.000000 0.000000 270.000000 2.683280 312.666595 8.277710 0.000000 29.150101 0.000000 0.000000 1.988250 356.811615 0.000000 0.000000 0.000000 359.879700 357.163849 349.454193 0.000000 29.393400 0.000000 360.000000 354.954224 7.149680 0.000000 360.000000 360.000000 
0.399175 0.690233 0.679828 7.255850 342.687286 208.044006 356.812561 341.562286 0.000000 0.000000 360.000000 5.156230 360.000000 0.000000 360.000000 360.000000 0.000000 0.000000 360.000000 0.000000 360.000000 360.000000 0.000000 360.000000 17.920601 11.911400 352.745178 0.000000 346.903809 360.000000 0.000000 0.000000 90.000000 360.000000 0.000000 360.000000 335.054199 342.522614 21.420000 0.000000 322.036896 0.000000 360.000000 0.000000 270.000000 359.938293 314.748291 7.855900 0.000000 31.287399 0.000000 0.000000 358.856415 356.689575 0.000000 0.000000 0.000000 356.611176 354.030609 349.107513 360.000000 39.585400 0.000000 0.000000 1.411870 6.063590 0.000000 360.000000 360.000000 
0.379091 0.693906 0.654829 6.341450 342.776306 207.639999 356.372070 341.780487 0.000000 360.000000 0.000000 4.351280 360.000000 360.000000 0.000000 0.000000 360.000000 360.000000 360.000000 360.000000 0.000000 360.000000 360.000000 0.000000 17.687700 9.619000 344.258392 360.000000 344.803192 360.000000 0.000000 0.000000 90.000000 360.000000 360.000000 0.000000 336.330597 344.715607 24.416000 0.000000 323.039612 360.000000 360.000000 360.000000 270.000000 358.734100 317.646393 8.328080 360.000000 32.079102 360.000000 0.000000 356.130432 356.199646 360.000000 360.000000 0.000000 354.781128 349.480499 349.587708 0.000000 50.908100 360.000000 0.000000 9.526810 2.875310 360.000000 0.000000 360.000000 
0.361306 0.698368 0.631352 5.363340 342.908112 206.878998 355.919647 342.357086 0.000000 0.000000 360.000000 3.240620 360.000000 0.000000 360.000000 360.000000 0.000000 360.000000 0.000000 360.000000 360.000000 0.000000 360.000000 360.000000 17.841299 6.548840 343.707214 0.000000 342.125397 0.000000 0.000000 0.000000 90.000000 0.000000 360.000000 360.000000 337.804688 346.772614 27.359900 0.000000 324.355194 0.000000 360.000000 360.000000 270.000000 357.900208 321.160187 9.237450 360.000000 31.334600 360.000000 0.000000 354.157166 355.619202 360.000000 360.000000 0.000000 353.739044 344.406586 350.800323 360.000000 60.406601 0.000000 0.000000 15.238900 358.023041 360.000000 0.000000 0.000000 
0.344558 0.703521 0.608370 4.778540 343.144501 206.218994 355.963043 342.608307 0.000000 360.000000 360.000000 1.905460 0.000000 360.000000 360.000000 360.000000 360.000000 0.000000 360.000000 360.000000 0.000000 360.000000 360.000000 0.000000 18.400200 2.926450 342.652313 360.000000 340.095215 0.000000 0.000000 0.000000 90.000000 360.000000 360.000000 0.000000 339.275604 348.868103 30.698299 360.000000 326.344696 360.000000 0.000000 360.000000 270.000000 357.374084 324.980988 10.189900 0.000000 29.549700 0.000000 360.000000 352.933624 354.945709 0.000000 0.000000 0.000000 353.417786 339.656097 351.878845 360.000000 66.606400 0.000000 0.000000 12.334900 355.005859 360.000000 360.000000 360.000000 
0.329444 0.708468 0.586382 4.727800 343.592987 206.203995 356.400635 343.143188 0.000000 0.000000 0.000000 359.808044 0.000000 360.000000 360.000000 0.000000 360.000000 360.000000 0.000000 360.000000 360.000000 0.000000 360.000000 360.000000 19.635099 359.476318 341.808105 360.000000 337.182312 0.000000 0.000000 0.000000 90.000000 0.000000 360.000000 360.000000 340.673004 351.216675 32.707298 360.000000 328.037811 360.000000 0.000000 360.000000 270.000000 357.135498 328.719604 10.754600 360.000000 27.406000 360.000000 0.000000 352.088928 354.176727 0.000000 0.000000 360.000000 353.743378 335.045013 352.748291 360.000000 69.780296 0.000000 360.000000 8.540750 355.109009 360.000000 360.000000 0.000000 
0.314848 0.713148 0.564684 4.710240 344.027588 206.214996 356.976349 343.628693 0.000000 360.000000 360.000000 357.818665 360.000000 360.000000 0.000000 0.000000 360.000000 0.000000 360.000000 360.000000 0.000000 360.000000 360.000000 0.000000 21.090300 355.715088 341.752899 360.000000 334.885010 0.000000 360.000000 0.000000 90.000000 360.000000 360.000000 0.000000 341.567902 354.030212 34.215000 360.000000 329.501404 360.000000 360.000000 0.000000 270.000000 356.984955 332.447388 11.698500 360.000000 24.915300 0.000000 360.000000 351.522644 353.188568 360.000000 360.000000 360.000000 353.766083 330.649506 352.792847 360.000000 70.315399 0.000000 360.000000 6.413740 356.078949 0.000000 0.000000 0.000000 
0.301161 0.716766 0.543774 5.014470 344.033905 205.848999 357.723022 343.614990 0.000000 360.000000 360.000000 356.491974 0.000000 0.000000 0.000000 0.000000 0.000000 0.000000 0.000000 0.000000 0.000000 0.000000 0.000000 0.000000 22.681101 352.058411 343.059601 360.000000 332.566010 360.000000 0.000000 0.000000 90.000000 0.000000 0.000000 0.000000 342.092102 357.029877 35.106098 360.000000 331.174103 360.000000 0.000000 0.000000 270.000000 357.043030 335.671692 12.779900 360.000000 22.320700 0.000000 0.000000 351.134735 352.416656 0.000000 0.000000 0.000000 354.862244 325.761902 354.114990 360.000000 68.587898 0.000000 0.000000 3.957700 356.025940 360.000000 360.000000 0.000000 
0.288720 0.718817 0.522967 5.373320 343.866089 205.343002 358.510529 343.613098 0.000000 360.000000 0.000000 355.512146 0.000000 360.000000 360.000000 0.000000 360.000000 360.000000 360.000000 360.000000 360.000000 360.000000 360.000000 360.000000 24.422899 348.645599 345.415588 0.000000 330.335205 0.000000 360.000000 0.000000 90.000000 360.000000 360.000000 360.000000 342.623413 359.828522 34.906700 0.000000 333.197906 0.000000 0.000000 360.000000 270.000000 357.227875 338.281006 13.959000 360.000000 20.505199 360.000000 360.000000 350.461761 351.704926 360.000000 0.000000 360.000000 356.371277 321.217194 355.777344 360.000000 64.338097 360.000000 0.000000 2.099280 355.362244 0.000000 360.000000 360.000000 
0.276845 0.719534 0.502568 5.611510 343.509308 205.056000 359.003479 343.628510 360.000000 0.000000 360.000000 354.508118 0.000000 0.000000 0.000000 360.000000 0.000000 360.000000 360.000000 0.000000 360.000000 360.000000 0.000000 360.000000 26.263500 345.349915 348.364288 360.000000 328.458008 0.000000 0.000000 0.000000 90.000000 360.000000 0.000000 360.000000 342.888885 2.488790 34.128899 360.000000 334.865906 360.000000 0.000000 360.000000 270.000000 356.964325 340.957489 14.462000 360.000000 18.108801 360.000000 0.000000 350.228760 351.327637 360.000000 360.000000 0.000000 357.326965 317.540192 356.460297 360.000000 57.513199 360.000000 360.000000 0.992036 355.207916 360.000000 360.000000 0.000000 
0.265330 0.718358 0.481427 5.915560 342.806091 204.716995 359.362854 343.295685 0.000000 0.000000 0.000000 353.873138 0.000000 0.000000 0.000000 0.000000 0.000000 0.000000 360.000000 0.000000 360.000000 360.000000 0.000000 360.000000 28.113100 342.566193 351.062286 360.000000 326.409088 0.000000 0.000000 0.000000 90.000000 360.000000 0.000000 360.000000 342.975891 5.079870 33.003201 0.000000 336.752411 0.000000 360.000000 360.000000 270.000000 356.629242 343.089203 14.610400 360.000000 16.254101 0.000000 0.000000 349.340393 351.724396 360.000000 360.000000 0.000000 358.216217 314.528900 356.645935 0.000000 48.438801 360.000000 359.995697 0.956730 356.038849 360.000000 360.000000 0.000000 
0.254266 0.715545 0.458988 6.134860 342.271790 204.473999 359.587250 343.086487 0.000000 0.000000 360.000000 353.153351 0.000000 0.000000 0.000000 0.000000 0.000000 0.000000 0.000000 0.000000 0.000000 0.000000 0.000000 0.000000 30.030500 340.353699 353.548187 0.000000 324.306091 0.000000 0.000000 0.000000 90.000000 0.000000 0.000000 0.000000 343.040588 7.389420 31.866100 0.000000 338.769714 0.000000 0.000000 0.000000 270.000000 356.374908 345.362610 15.010300 360.000000 14.678300 0.000000 360.000000 348.465912 351.749695 0.000000 0.000000 0.000000 359.070038 313.321411 356.129181 0.000000 36.449699 360.000000 360.000000 2.310020 358.491089 360.000000 360.000000 360.000000 
0.243252 0.711552 0.435679 6.465980 341.315613 204.416000 359.724426 342.361603 0.000000 360.000000 0.000000 352.639160 0.000000 0.000000 0.000000 0.000000 0.000000 0.000000 0.000000 0.000000 0.000000 0.000000 0.000000 0.000000 31.530701 338.640808 355.904205 0.000000 322.259613 0.000000 360.000000 0.000000 90.000000 0.000000 0.000000 0.000000 342.942993 9.696780 30.208700 360.000000 340.340607 360.000000 360.000000 0.000000 270.000000 355.976593 347.207214 14.779500 360.000000 13.179800 0.000000 0.000000 347.660400 352.402893 360.000000 360.000000 0.000000 359.823486 313.010498 354.267181 0.000000 22.309401 360.000000 0.000000 4.674290 3.243880 360.000000 0.000000 360.000000 
0.232777 0.706806 0.409994 6.605830 340.689789 204.472000 359.635864 341.823090 0.000000 0.000000 360.000000 352.119080 0.000000 360.000000 360.000000 0.000000 360.000000 360.000000 0.000000 360.000000 360.000000 0.000000 360.000000 360.000000 32.888199 337.590790 357.562256 360.000000 320.422607 0.000000 0.000000 0.000000 90.000000 0.000000 360.000000 360.000000 343.154907 11.785500 28.284599 360.000000 342.302094 360.000000 360.000000 360.000000 270.000000 355.854034 349.291809 15.281700 360.000000 12.417800 0.000000 360.000000 347.126709 351.845276 360.000000 0.000000 360.000000 1.183410 313.908203 352.764587 360.000000 8.701640 360.000000 0.000000 4.859250 9.673060 0.000000 0.000000 0.000000 
